<svg width="20" height="20" viewBox="0 0 20 20" fill="none" xmlns="http://www.w3.org/2000/svg">
<rect x="2.20117" y="5.19995" width="16.8" height="10.2" fill="white"/>
<path d="M19 4.3999H10.6C10.2688 4.3999 10 4.67866 10 5.02212C10 5.36559 10.2688 5.64435 10.6 5.64435H17.2516L13.5652 8.61732L10.9216 6.87386L10.2784 7.92417L13.2784 9.90284C13.3756 9.96755 13.4884 9.9999 13.6 9.9999C13.7296 9.9999 13.8604 9.95635 13.9684 9.86924L18.4 6.29395V14.3555H10.6C10.2688 14.3555 10 14.6342 10 14.9777C10 15.3211 10.2688 15.5999 10.6 15.5999H19C19.3312 15.5999 19.6 15.3211 19.6 14.9777V5.02212C19.6 4.67866 19.3312 4.3999 19 4.3999Z" fill="#006FC4"/>
<path d="M10.9362 0.547958C10.8 0.426364 10.6172 0.373886 10.4451 0.412284L0.887815 2.3322C0.604679 2.38852 0.400391 2.65218 0.400391 2.96065V17.04C0.400391 17.3472 0.604679 17.6122 0.887815 17.6685L10.4451 19.5884C10.481 19.5961 10.518 19.5999 10.5551 19.5999C10.6936 19.5999 10.8286 19.5487 10.9362 19.4527C11.0735 19.3311 11.1524 19.1494 11.1524 18.9599V1.04074C11.1524 0.850025 11.0735 0.669553 10.9362 0.547958Z" fill="#006DC3"/>
<path d="M5.80078 14.9062C4.14718 14.9062 2.80078 13.1313 2.80078 10.9502C2.80078 8.76909 4.14718 6.99414 5.80078 6.99414C7.45438 6.99414 8.80078 8.76909 8.80078 10.9502C8.80078 13.1313 7.45438 14.9062 5.80078 14.9062ZM5.80078 8.31282C4.80838 8.31282 4.00078 9.49568 4.00078 10.9502C4.00078 12.4047 4.80838 13.5875 5.80078 13.5875C6.79318 13.5875 7.60078 12.4047 7.60078 10.9502C7.60078 9.49568 6.79318 8.31282 5.80078 8.31282Z" fill="#EFEFEF"/>
</svg>
