<svg width="54" height="54" viewBox="0 0 54 54" fill="none" xmlns="http://www.w3.org/2000/svg">
<g clip-path="url(#clip0_10_735)">
<path d="M50.195 8.42304L42.8229 1.05117C42.3599 0.588252 41.7444 0.333252 41.0896 0.333252H10.0511C8.69953 0.333252 7.59984 1.43294 7.59984 2.7845V27.0537H5.87609C4.06401 27.0537 2.58984 28.5279 2.58984 30.3399V45.3701C2.58984 47.1822 4.06401 48.6565 5.87609 48.6565H31.7615C33.1132 48.6565 34.2127 47.5568 34.2127 46.2052V34.5151C34.2127 33.1635 33.1131 32.0638 31.7615 32.0638H5.87609C4.92557 32.0638 4.15234 31.2905 4.15234 30.34C4.15234 29.3895 4.92557 28.6163 5.87609 28.6163H7.59984V29.5053C7.59984 29.9368 7.94963 30.2866 8.38109 30.2866C8.81255 30.2866 9.16234 29.9368 9.16234 29.5053V2.7845C9.16234 2.2944 9.56109 1.89575 10.0511 1.89575H40.1653V9.46461C40.1653 10.3559 40.8903 11.081 41.7816 11.081H49.3504V51.2153C49.3504 51.7054 48.9517 52.1041 48.4617 52.1041H10.0511C9.56099 52.1041 9.16234 51.7054 9.16234 51.2153C9.16234 50.7839 8.81255 50.4341 8.38109 50.4341C7.94963 50.4341 7.59984 50.7839 7.59984 51.2153C7.59984 52.567 8.69953 53.6666 10.0511 53.6666H48.4617C49.8134 53.6666 50.9129 52.5669 50.9129 51.2153V10.1564C50.913 9.50169 50.658 8.88607 50.195 8.42304V8.42304ZM5.87609 33.6263H31.7615C32.2516 33.6263 32.6502 34.025 32.6502 34.5151V46.2053C32.6502 46.6954 32.2515 47.0941 31.7615 47.0941H5.87609C4.92557 47.0941 4.15234 46.3208 4.15234 45.3702V33.1369C4.6537 33.4472 5.24432 33.6263 5.87609 33.6263ZM41.7278 9.46461V2.16586L49.0806 9.51846H41.7816C41.752 9.51846 41.7278 9.49429 41.7278 9.46461Z" fill="#00ADBB"/>
<path d="M17.5672 44.4646C17.623 44.4742 17.6682 44.4819 18.4152 44.4819C18.7757 44.4819 19.2997 44.4801 20.0671 44.4758C20.4986 44.4735 20.8464 44.1217 20.844 43.6901C20.8416 43.2586 20.4879 42.9146 20.0584 42.9133C19.5128 42.9163 18.9269 42.9185 18.4805 42.9189V36.9504C18.4805 36.519 18.1307 36.1692 17.6992 36.1692C17.2678 36.1692 16.918 36.519 16.918 36.9504V43.6945C16.918 44.0751 17.1921 44.4003 17.5672 44.4646V44.4646Z" fill="#00ADBB"/>
<path d="M25.4949 44.4816C26.887 44.4816 28.0556 43.5956 28.2736 42.3749C28.4372 41.4586 28.0181 40.2606 26.3513 39.6458C25.5118 39.3361 24.731 38.9987 24.5025 38.8985C24.287 38.731 24.294 38.4944 24.308 38.3965C24.3268 38.2655 24.421 37.9457 24.8887 37.8048C25.8729 37.5082 26.7786 38.2254 26.8037 38.2456C27.1339 38.5199 27.6242 38.4763 27.9008 38.1473C28.1784 37.8169 28.1357 37.3241 27.8054 37.0465C27.7428 36.9939 26.2502 35.7629 24.438 36.3087C23.5297 36.5823 22.8872 37.2973 22.7613 38.1744C22.6434 38.9961 22.9994 39.7864 23.6905 40.2369C23.7251 40.2594 23.7612 40.2792 23.7989 40.296C23.838 40.3134 24.7656 40.7263 25.8105 41.1117C26.1211 41.2263 26.8332 41.5521 26.7353 42.1002C26.6634 42.5027 26.1798 42.919 25.4946 42.919C24.8065 42.919 24.1436 42.641 23.7215 42.1752C23.4318 41.8555 22.9378 41.8311 22.618 42.1209C22.2983 42.4106 22.2739 42.9047 22.5637 43.2245C23.2772 44.0118 24.3729 44.4816 25.4949 44.4816V44.4816Z" fill="#00ADBB"/>
<path d="M8.74937 44.3389C8.88614 44.4353 9.04312 44.4815 9.19864 44.4815C9.44416 44.4815 9.68582 44.3661 9.83801 44.1501L11.7452 41.4428L13.6495 44.1497C13.8015 44.3659 14.0434 44.4815 14.2891 44.4815C14.4445 44.4815 14.6013 44.4354 14.738 44.3392C15.0909 44.0909 15.1757 43.6036 14.9275 43.2507L12.7011 40.086L14.593 37.4005C14.8415 37.0478 14.757 36.5604 14.4043 36.3119C14.0515 36.0634 13.5641 36.148 13.3156 36.5007L11.7461 38.7286L10.1792 36.501C9.93093 36.1481 9.44353 36.0633 9.09062 36.3115C8.7377 36.5597 8.65291 37.0471 8.90114 37.4L10.7902 40.0853L8.56062 43.2502C8.31208 43.6031 8.39666 44.0904 8.74937 44.3389V44.3389Z" fill="#00ADBB"/>
<path d="M40.0579 15.3097C40.0579 14.4185 39.3329 13.6934 38.4416 13.6934H20.0713C19.1801 13.6934 18.4551 14.4185 18.4551 15.3097V26.1648C18.4551 27.056 19.1801 27.781 20.0713 27.781H38.4415C39.3328 27.781 40.0578 27.056 40.0578 26.1648V15.3097H40.0579ZM26.6977 22.0435V19.4309H31.8153V22.0435H26.6977ZM31.8153 23.606V26.2186H26.6977V23.606H31.8153ZM20.0176 19.4311H25.1352V22.0437H20.0176V19.4311ZM26.6977 17.8686V15.256H31.8153V17.8686H26.6977ZM33.3778 19.4311H38.4954V22.0437H33.3778V19.4311ZM38.4954 15.3097V17.8685H33.3778V15.2559H38.4416C38.4712 15.256 38.4954 15.28 38.4954 15.3097ZM20.0713 15.256H25.1352V17.8686H20.0176V15.3098C20.0176 15.28 20.0416 15.256 20.0713 15.256ZM20.0176 26.1649V23.6061H25.1352V26.2186H20.0713C20.0416 26.2186 20.0176 26.1946 20.0176 26.1649ZM38.4416 26.2186H33.3778V23.606H38.4954V26.1648C38.4954 26.1946 38.4712 26.2186 38.4416 26.2186Z" fill="#00ADBB"/>
</g>
<defs>
<clipPath id="clip0_10_735">
<rect width="53.3333" height="53.3333" fill="white" transform="translate(0.0839844 0.333252)"/>
</clipPath>
</defs>
</svg>
