<svg width="52" height="52" viewBox="0 0 52 52" fill="none" xmlns="http://www.w3.org/2000/svg">
<g clip-path="url(#clip0_10_764)">
<path d="M41.0798 25.68C41.494 25.68 41.8298 25.3442 41.8298 24.93C41.8298 24.5158 41.494 24.18 41.0798 24.18H40.2266V16.9139C40.2266 16.0583 39.5306 15.3623 38.675 15.3623H35.4686C34.613 15.3623 33.917 16.0583 33.917 16.9139V24.18H32.2106V20.9219C32.2106 20.0663 31.5146 19.3703 30.659 19.3703H27.4526C26.597 19.3703 25.901 20.0663 25.901 20.9219V24.18H24.1945V16.1123C24.1945 15.6981 23.8587 15.3623 23.4445 15.3623C23.0303 15.3623 22.6945 15.6981 22.6945 16.1123V24.18H19.3848V11.3026C19.3848 11.2741 19.4079 11.251 19.4364 11.251H22.6428C22.6713 11.251 22.6944 11.2741 22.6944 11.3026V12.9059C22.6944 13.3201 23.0302 13.6559 23.4444 13.6559C23.8586 13.6559 24.1944 13.3201 24.1944 12.9059V11.3026C24.1944 10.447 23.4984 9.75098 22.6428 9.75098H19.4364C18.5808 9.75098 17.8848 10.447 17.8848 11.3026V24.18H16.1784V17.7155C16.1784 16.8599 15.4824 16.1639 14.6268 16.1639H11.4204C10.5648 16.1639 9.86883 16.8599 9.86883 17.7155V24.18H9.01562C8.60142 24.18 8.26562 24.5158 8.26562 24.93C8.26562 25.3442 8.60142 25.68 9.01562 25.68H41.0798ZM35.4169 16.9139C35.4169 16.8854 35.44 16.8623 35.4685 16.8623H38.6749C38.7034 16.8623 38.7265 16.8854 38.7265 16.9139V24.18H35.4168V16.9139H35.4169ZM27.4008 20.9219C27.4008 20.8934 27.4239 20.8703 27.4524 20.8703H30.6588C30.6873 20.8703 30.7104 20.8934 30.7104 20.9219V24.18H27.4007V20.9219H27.4008ZM11.3686 17.7155C11.3686 17.687 11.3917 17.6639 11.4202 17.6639H14.6266C14.6551 17.6639 14.6782 17.687 14.6782 17.7155V24.18H11.3685V17.7155H11.3686Z" fill="#00ADBB"/>
<path d="M36.2699 46.6252H6.61019C6.58169 46.6252 6.55859 46.6021 6.55859 46.5736V1.68319C6.55859 1.65469 6.58169 1.63159 6.61019 1.63159H34.4723C34.5556 1.63159 34.6374 1.63969 34.7182 1.65169V8.89779C34.7182 9.75339 35.4142 10.4494 36.2698 10.4494H43.5159C43.5279 10.5302 43.5359 10.612 43.5359 10.6952V40.9623C43.5359 41.3765 43.8717 41.7123 44.2859 41.7123C44.7001 41.7123 45.0359 41.3765 45.0359 40.9623V10.6951C45.0359 9.85239 44.7077 9.06019 44.1119 8.46429L36.7031 1.05559C36.1072 0.459692 35.3149 0.131592 34.4723 0.131592H6.61019C5.75459 0.131592 5.05859 0.827592 5.05859 1.68319V46.5735C5.05859 47.4291 5.75459 48.1251 6.61019 48.1251H36.2699C36.6841 48.1251 37.0199 47.7893 37.0199 47.3751C37.0199 46.9609 36.6841 46.6252 36.2699 46.6252ZM42.4757 8.94929H36.2699C36.2414 8.94929 36.2183 8.92619 36.2183 8.89769V2.69199L42.4757 8.94929Z" fill="#00ADBB"/>
<path d="M46.751 47.3146L41.1401 41.7037C40.6959 41.2589 40.1048 41.014 39.4759 41.014C39.1062 41.014 38.7499 41.0993 38.4286 41.2593L37.0242 39.8549C38.0228 38.6235 38.6227 37.0564 38.6227 35.3511C38.6227 31.4014 35.4094 28.1882 31.4598 28.1882C27.5101 28.1882 24.2969 31.4015 24.2969 35.3511C24.2969 39.3007 27.5102 42.514 31.4598 42.514C33.165 42.514 34.7322 41.9141 35.9636 40.9155L37.3681 42.32C37.208 42.6414 37.1228 42.9977 37.1228 43.3672C37.1228 43.9959 37.3677 44.5868 37.8122 45.031L43.4231 50.642C43.8672 51.0867 44.4583 51.3317 45.0873 51.3317C45.7163 51.3317 46.3073 51.0868 46.751 50.6425C47.1956 50.1981 47.4405 49.6071 47.4405 48.9784C47.4405 48.3497 47.1954 47.7588 46.751 47.3146V47.3146ZM25.7968 35.3511C25.7968 32.2286 28.3372 29.6882 31.4597 29.6882C34.5822 29.6882 37.1226 32.2286 37.1226 35.3511C37.1226 38.4736 34.5822 41.014 31.4597 41.014C28.3371 41.014 25.7968 38.4736 25.7968 35.3511ZM38.6226 43.3672C38.6226 43.1393 38.7114 42.9252 38.8729 42.7636C39.0337 42.6026 39.2479 42.5139 39.4758 42.5139C39.7038 42.5139 39.9178 42.6026 40.079 42.7639L40.8012 43.4861L39.5948 44.6925L38.8724 43.9701C38.7113 43.8092 38.6226 43.595 38.6226 43.3672V43.3672ZM45.69 49.582C45.5292 49.743 45.3151 49.8317 45.0871 49.8317C44.8591 49.8317 44.6451 49.743 44.4839 49.5817L40.6555 45.7532L41.8619 44.5468L45.6905 48.3754C45.8516 48.5364 45.9404 48.7506 45.9404 48.9784C45.9404 49.2062 45.8516 49.4205 45.69 49.582V49.582Z" fill="#00ADBB"/>
<path d="M11.4199 29.688H13.0231C13.4373 29.688 13.7731 29.3522 13.7731 28.938C13.7731 28.5238 13.4373 28.188 13.0231 28.188H11.4199C11.0057 28.188 10.6699 28.5238 10.6699 28.938C10.6699 29.3522 11.0057 29.688 11.4199 29.688V29.688Z" fill="#00ADBB"/>
<path d="M11.4199 32.8945H13.0231C13.4373 32.8945 13.7731 32.5587 13.7731 32.1445C13.7731 31.7303 13.4373 31.3945 13.0231 31.3945H11.4199C11.0057 31.3945 10.6699 31.7303 10.6699 32.1445C10.6699 32.5587 11.0057 32.8945 11.4199 32.8945V32.8945Z" fill="#00ADBB"/>
<path d="M24.195 28.938C24.195 28.5238 23.8592 28.188 23.445 28.188H16.2305C15.8163 28.188 15.4805 28.5238 15.4805 28.938C15.4805 29.3522 15.8163 29.688 16.2305 29.688H23.445C23.8592 29.688 24.195 29.3523 24.195 28.938V28.938Z" fill="#00ADBB"/>
<path d="M22.5918 32.1445C22.5918 31.7303 22.256 31.3945 21.8418 31.3945H16.2305C15.8163 31.3945 15.4805 31.7303 15.4805 32.1445C15.4805 32.5587 15.8163 32.8945 16.2305 32.8945H21.8418C22.256 32.8945 22.5918 32.5587 22.5918 32.1445Z" fill="#00ADBB"/>
<path d="M11.4199 39.3074H18.6344C19.0486 39.3074 19.3844 38.9716 19.3844 38.5574C19.3844 38.1432 19.0486 37.8074 18.6344 37.8074H11.4199C11.0057 37.8074 10.6699 38.1432 10.6699 38.5574C10.6699 38.9716 11.0057 39.3074 11.4199 39.3074V39.3074Z" fill="#00ADBB"/>
<path d="M11.4199 36.1008H13.0231C13.4373 36.1008 13.7731 35.765 13.7731 35.3508C13.7731 34.9366 13.4373 34.6008 13.0231 34.6008H11.4199C11.0057 34.6008 10.6699 34.9366 10.6699 35.3508C10.6699 35.765 11.0057 36.1008 11.4199 36.1008V36.1008Z" fill="#00ADBB"/>
<path d="M21.7902 35.3508C21.7902 34.9366 21.4544 34.6008 21.0402 34.6008H16.2305C15.8163 34.6008 15.4805 34.9366 15.4805 35.3508C15.4805 35.765 15.8163 36.1008 16.2305 36.1008H21.0402C21.4544 36.1008 21.7902 35.765 21.7902 35.3508Z" fill="#00ADBB"/>
<path d="M21.8415 8.04443C22.2557 8.04443 22.5915 7.70863 22.5915 7.29443C22.5915 6.88023 22.2557 6.54443 21.8415 6.54443H20.2383C19.8241 6.54443 19.4883 6.88023 19.4883 7.29443C19.4883 7.70863 19.8241 8.04443 20.2383 8.04443H21.8415Z" fill="#00ADBB"/>
<path d="M29.8571 17.6638C30.2713 17.6638 30.6071 17.328 30.6071 16.9138C30.6071 16.4996 30.2713 16.1638 29.8571 16.1638H28.2539C27.8397 16.1638 27.5039 16.4996 27.5039 16.9138C27.5039 17.328 27.8397 17.6638 28.2539 17.6638H29.8571Z" fill="#00ADBB"/>
<path d="M13.8239 14.4573C14.2381 14.4573 14.5739 14.1215 14.5739 13.7073C14.5739 13.2931 14.2381 12.9573 13.8239 12.9573H12.2207C11.8065 12.9573 11.4707 13.2931 11.4707 13.7073C11.4707 14.1215 11.8065 14.4573 12.2207 14.4573H13.8239Z" fill="#00ADBB"/>
<path d="M37.8727 13.6558C38.2869 13.6558 38.6227 13.32 38.6227 12.9058C38.6227 12.4916 38.2869 12.1558 37.8727 12.1558H36.2695C35.8553 12.1558 35.5195 12.4916 35.5195 12.9058C35.5195 13.32 35.8553 13.6558 36.2695 13.6558H37.8727Z" fill="#00ADBB"/>
</g>
<defs>
<clipPath id="clip0_10_764">
<rect width="51.2" height="51.2" fill="white" transform="translate(0.650391 0.131592)"/>
</clipPath>
</defs>
</svg>
