<svg width="52" height="52" viewBox="0 0 52 52" fill="none" xmlns="http://www.w3.org/2000/svg">
<g clip-path="url(#clip0_10_536)">
<path d="M48.7557 7.89779L41.6785 0.820792C41.234 0.376392 40.6431 0.131592 40.0145 0.131592H10.2175C8.91998 0.131592 7.86428 1.18729 7.86428 2.48479V25.7832H6.20949C4.46989 25.7832 3.05469 27.1985 3.05469 28.938V43.367C3.05469 45.1066 4.46989 46.5219 6.20949 46.5219H35.8692C37.1668 46.5219 38.2224 45.4662 38.2224 44.1687V32.9462C38.2224 31.6486 37.1667 30.5929 35.8692 30.5929H6.20949C5.29699 30.5929 4.55469 29.8506 4.55469 28.9381C4.55469 28.0256 5.29699 27.2833 6.20949 27.2833H7.86428V28.1368C7.86428 28.551 8.20008 28.8868 8.61428 28.8868C9.02848 28.8868 9.36428 28.551 9.36428 28.1368V2.48479C9.36428 2.01429 9.74708 1.63159 10.2175 1.63159H39.1272V8.89769C39.1272 9.75329 39.8232 10.4494 40.6788 10.4494H47.9449V48.9784C47.9449 49.4489 47.5621 49.8316 47.0917 49.8316H10.2175C9.74698 49.8316 9.36428 49.4489 9.36428 48.9784C9.36428 48.5642 9.02848 48.2284 8.61428 48.2284C8.20008 48.2284 7.86428 48.5642 7.86428 48.9784C7.86428 50.276 8.91998 51.3316 10.2175 51.3316H47.0917C48.3893 51.3316 49.4449 50.2759 49.4449 48.9784V9.56179C49.445 8.93329 49.2002 8.34229 48.7557 7.89779V7.89779ZM6.20949 32.0929H35.8692C36.3397 32.0929 36.7224 32.4757 36.7224 32.9462V44.1688C36.7224 44.6393 36.3396 45.022 35.8692 45.022H6.20949C5.29699 45.022 4.55469 44.2796 4.55469 43.3671V31.6231C5.03599 31.921 5.60299 32.0929 6.20949 32.0929ZM40.6272 8.89769V1.89089L47.6859 8.94939H40.6788C40.6504 8.94939 40.6272 8.92619 40.6272 8.89769Z" fill="#00ADBB"/>
<path d="M19.8359 26.4817H37.4713C37.8855 26.4817 38.2213 26.1459 38.2213 25.7317C38.2213 25.3175 37.8855 24.9817 37.4713 24.9817H19.8359C19.4217 24.9817 19.0859 25.3175 19.0859 25.7317C19.0859 26.1459 19.4217 26.4817 19.8359 26.4817Z" fill="#00ADBB"/>
<path d="M19.8359 22.4734H37.4713C37.8855 22.4734 38.2213 22.1376 38.2213 21.7234C38.2213 21.3092 37.8855 20.9734 37.4713 20.9734H19.8359C19.4217 20.9734 19.0859 21.3092 19.0859 21.7234C19.0859 22.1376 19.4217 22.4734 19.8359 22.4734Z" fill="#00ADBB"/>
<path d="M31.0586 18.4653H37.4715C37.8857 18.4653 38.2215 18.1295 38.2215 17.7153C38.2215 17.301 37.8857 16.9653 37.4715 16.9653H31.0586C30.6444 16.9653 30.3086 17.301 30.3086 17.7153C30.3086 18.1294 30.6444 18.4653 31.0586 18.4653Z" fill="#00ADBB"/>
<path d="M31.0586 14.4573H37.4715C37.8857 14.4573 38.2215 14.1216 38.2215 13.7073C38.2215 13.2931 37.8857 12.9573 37.4715 12.9573H31.0586C30.6444 12.9573 30.3086 13.2931 30.3086 13.7073C30.3086 14.1215 30.6444 14.4573 31.0586 14.4573Z" fill="#00ADBB"/>
<path d="M29.7594 42.6428C30.6573 42.6428 31.4629 42.3481 32.0888 41.7906C32.2114 41.6813 32.328 41.5611 32.4353 41.4332C32.7015 41.1158 32.66 40.6428 32.3426 40.3766C32.0252 40.1104 31.5521 40.1519 31.286 40.4693C31.2253 40.5418 31.1597 40.6094 31.0911 40.6705C30.7392 40.9839 30.2911 41.1429 29.7593 41.1429C28.3337 41.1429 27.1739 39.9831 27.1739 38.5574C27.1739 37.1318 28.3337 35.972 29.7593 35.972C30.2775 35.972 30.7772 36.1245 31.2043 36.4131C31.5476 36.6449 32.0138 36.5547 32.2456 36.2115C32.4775 35.8682 32.3873 35.402 32.044 35.1701C31.3679 34.7133 30.5779 34.4719 29.7592 34.4719C27.5065 34.4719 25.6738 36.3046 25.6738 38.5573C25.6738 40.81 27.5066 42.6428 29.7594 42.6428V42.6428Z" fill="#00ADBB"/>
<path d="M20.232 42.6428C22.4847 42.6428 24.3174 40.81 24.3174 38.5573C24.3174 36.3046 22.4847 34.4719 20.232 34.4719C17.9793 34.4719 16.1465 36.3046 16.1465 38.5573C16.1465 40.81 17.9793 42.6428 20.232 42.6428V42.6428ZM20.232 35.9718C21.6576 35.9718 22.8174 37.1317 22.8174 38.5572C22.8174 39.9829 21.6576 41.1427 20.232 41.1427C18.8064 41.1427 17.6465 39.9829 17.6465 38.5572C17.6465 37.1317 18.8064 35.9718 20.232 35.9718V35.9718Z" fill="#00ADBB"/>
<path d="M20.6375 18.4655H26.2488C27.1044 18.4655 27.8004 17.7694 27.8004 16.9138V14.509C27.8004 13.6534 27.1044 12.9573 26.2488 12.9573H20.6375C19.7819 12.9573 19.0859 13.6534 19.0859 14.509V16.9138C19.0859 17.7694 19.782 18.4655 20.6375 18.4655ZM20.5859 14.509C20.5859 14.4805 20.609 14.4573 20.6375 14.4573H26.2488C26.2773 14.4573 26.3004 14.4804 26.3004 14.509V16.9138C26.3004 16.9423 26.2773 16.9655 26.2488 16.9655H20.6375C20.609 16.9655 20.5859 16.9424 20.5859 16.9138V14.509Z" fill="#00ADBB"/>
<path d="M8.67912 41.797C8.67982 41.9959 8.75962 42.1865 8.90072 42.3266C9.04122 42.4661 9.23122 42.5443 9.42912 42.5443H9.43192C9.48731 42.5441 10.7942 42.5391 11.3161 42.5299C13.2268 42.4965 14.6136 40.8259 14.6136 38.5574C14.6136 36.1728 13.2616 34.5706 11.2494 34.5706H9.41602C9.21682 34.5706 9.02592 34.6498 8.88522 34.7908C8.74452 34.9317 8.66562 35.1228 8.66602 35.322C8.66602 35.322 8.67072 37.8121 8.67072 38.5502C8.67072 39.4503 8.67912 41.797 8.67912 41.797ZM11.2495 36.0707C12.624 36.0707 13.1137 37.3554 13.1137 38.5575C13.1137 40.2436 12.1977 41.0143 11.29 41.0302C11.0353 41.0346 10.5756 41.0382 10.1766 41.0406C10.1741 40.2749 10.1707 39.1211 10.1707 38.5504C10.1707 38.0737 10.1687 36.867 10.1674 36.0707H11.2495Z" fill="#00ADBB"/>
</g>
<defs>
<clipPath id="clip0_10_536">
<rect width="51.2" height="51.2" fill="white" transform="translate(0.650391 0.131592)"/>
</clipPath>
</defs>
</svg>
