<svg width="49" height="54" viewBox="0 0 49 54" fill="none" xmlns="http://www.w3.org/2000/svg">
<g clip-path="url(#clip0_10_742)">
<path d="M45.375 7.98025H25.6875V3.07829C25.6875 2.81828 25.5887 2.56891 25.4129 2.38505C25.2371 2.20119 24.9986 2.0979 24.75 2.0979C24.5014 2.0979 24.2629 2.20119 24.0871 2.38505C23.9113 2.56891 23.8125 2.81828 23.8125 3.07829V7.98025H4.125C3.37933 7.9811 2.66442 8.29124 2.13715 8.84264C1.60988 9.39403 1.31331 10.1416 1.3125 10.9214V40.3332C1.31331 41.113 1.60988 41.8606 2.13715 42.412C2.66442 42.9634 3.37933 43.2735 4.125 43.2744H15.2995L9.01805 51.4854C8.93955 51.5857 8.88087 51.7014 8.84539 51.8256C8.80991 51.9498 8.79833 52.0801 8.81134 52.2091C8.82435 52.338 8.86168 52.4629 8.92118 52.5767C8.98067 52.6904 9.06114 52.7907 9.15793 52.8717C9.25472 52.9527 9.36592 53.0128 9.48507 53.0485C9.60423 53.0843 9.72899 53.095 9.85212 53.08C9.97526 53.065 10.0943 53.0246 10.2024 52.9612C10.3105 52.8977 10.4056 52.8125 10.482 52.7104L17.7007 43.2744H31.7995L39.018 52.7104C39.1744 52.9102 39.3998 53.0375 39.6453 53.0646C39.8908 53.0917 40.1366 53.0164 40.3294 52.8551C40.5222 52.6938 40.6463 52.4595 40.6749 52.203C40.7034 51.9466 40.6341 51.6887 40.482 51.4854L34.2007 43.2744H45.375C46.1207 43.2735 46.8356 42.9634 47.3628 42.412C47.8901 41.8606 48.1867 41.113 48.1875 40.3332V10.9214C48.1867 10.1416 47.8901 9.39403 47.3628 8.84264C46.8356 8.29124 46.1207 7.9811 45.375 7.98025ZM46.3125 40.3332C46.3123 40.5931 46.2134 40.8423 46.0376 41.0262C45.8619 41.21 45.6236 41.3133 45.375 41.3136H4.125C3.87644 41.3133 3.63812 41.21 3.46236 41.0262C3.2866 40.8423 3.18775 40.5931 3.1875 40.3332V10.9214C3.18775 10.6615 3.2866 10.4123 3.46236 10.2285C3.63812 10.0447 3.87644 9.9413 4.125 9.94104H45.375C45.6236 9.9413 45.8619 10.0447 46.0376 10.2285C46.2134 10.4123 46.3123 10.6615 46.3125 10.9214V40.3332ZM18.1875 26.6077V32.4901C18.1875 32.7501 18.0887 32.9994 17.9129 33.1833C17.7371 33.3672 17.4986 33.4705 17.25 33.4705C17.0014 33.4705 16.7629 33.3672 16.5871 33.1833C16.4113 32.9994 16.3125 32.7501 16.3125 32.4901V26.6077C16.3125 26.3477 16.4113 26.0983 16.5871 25.9145C16.7629 25.7306 17.0014 25.6273 17.25 25.6273C17.4986 25.6273 17.7371 25.7306 17.9129 25.9145C18.0887 26.0983 18.1875 26.3477 18.1875 26.6077ZM25.6875 22.6861V32.4901C25.6875 32.7501 25.5887 32.9994 25.4129 33.1833C25.2371 33.3672 24.9986 33.4705 24.75 33.4705C24.5014 33.4705 24.2629 33.3672 24.0871 33.1833C23.9113 32.9994 23.8125 32.7501 23.8125 32.4901V22.6861C23.8125 22.4261 23.9113 22.1768 24.0871 21.9929C24.2629 21.809 24.5014 21.7057 24.75 21.7057C24.9986 21.7057 25.2371 21.809 25.4129 21.9929C25.5887 22.1768 25.6875 22.4261 25.6875 22.6861ZM33.1875 18.7646V32.4901C33.1875 32.7501 33.0887 32.9994 32.9129 33.1833C32.7371 33.3672 32.4986 33.4705 32.25 33.4705C32.0014 33.4705 31.7629 33.3672 31.5871 33.1833C31.4113 32.9994 31.3125 32.7501 31.3125 32.4901V18.7646C31.3125 18.5046 31.4113 18.2552 31.5871 18.0713C31.7629 17.8875 32.0014 17.7842 32.25 17.7842C32.4986 17.7842 32.7371 17.8875 32.9129 18.0713C33.0887 18.2552 33.1875 18.5046 33.1875 18.7646Z" fill="#00ADBB"/>
</g>
<defs>
<clipPath id="clip0_10_742">
<rect width="48" height="53.3333" fill="white" transform="translate(0.75 0.333252)"/>
</clipPath>
</defs>
</svg>
