<svg width="44" height="54" viewBox="0 0 44 54" fill="none" xmlns="http://www.w3.org/2000/svg">
<g clip-path="url(#clip0_10_731)">
<path d="M38.7591 53.6666H5.73828C4.44589 53.6666 3.39453 52.6152 3.39453 51.3228V23.6927C3.39453 23.2613 3.74432 22.9115 4.17578 22.9115C4.60724 22.9115 4.95703 23.2613 4.95703 23.6927V51.3228C4.95703 51.7537 5.30745 52.1041 5.73828 52.1041H38.7591C39.1899 52.1041 39.5404 51.7537 39.5404 51.3228V40.7239C39.5404 40.2924 39.8902 39.9426 40.3216 39.9426C40.7531 39.9426 41.1029 40.2924 41.1029 40.7239V51.3228C41.1029 52.6152 40.0515 53.6666 38.7591 53.6666ZM25.0896 39.2689C24.6375 39.2689 24.1944 39.092 23.8607 38.7581L19.4777 34.3751H14.3521C13.1724 34.3751 12.1397 33.6226 11.7821 32.5027C11.5586 31.8026 11.3791 31.0398 11.2489 30.2355C11.1799 29.8096 11.4694 29.4085 11.8954 29.3395C12.3207 29.2709 12.7224 29.5599 12.7914 29.986C12.9092 30.714 13.0705 31.4009 13.2706 32.0275C13.4205 32.4972 13.8552 32.8127 14.3521 32.8127H19.02V21.1872H14.3521C13.8552 21.1872 13.4206 21.5027 13.2706 21.9724C12.9469 22.9858 12.5612 24.6805 12.5612 26.9999C12.5612 27.4314 12.2114 27.7812 11.7799 27.7812C11.3485 27.7812 10.9987 27.4314 10.9987 26.9999C10.9987 24.4794 11.4247 22.6163 11.7821 21.497C12.1397 20.3771 13.1724 19.6246 14.3521 19.6246H19.4777L23.8607 15.2416C24.3602 14.742 25.1048 14.5939 25.7575 14.8642C26.4103 15.1346 26.832 15.7658 26.832 16.4723V37.5274C26.832 38.2339 26.4103 38.8651 25.7575 39.1355C25.5409 39.2252 25.3142 39.2689 25.0896 39.2689ZM20.5824 33.2703L24.9655 37.6534C25.0213 37.7092 25.0865 37.7221 25.1595 37.692C25.2324 37.6618 25.2694 37.6065 25.2694 37.5275V16.4724C25.2694 16.3935 25.2324 16.3381 25.1595 16.3079C25.0866 16.2777 25.0213 16.2906 24.9655 16.3466L20.5824 20.7296V33.2703ZM30.1654 3.91596V10.4895C30.1654 10.9203 30.5158 11.2708 30.9466 11.2708H37.5201C36.5044 10.255 35.1736 8.92419 33.8428 7.59336C32.5119 6.26242 31.1811 4.93169 30.1654 3.91596ZM32.5091 34.7465C32.0777 34.7465 31.7279 34.3967 31.7279 33.9652V20.0346C31.7279 19.6031 32.0777 19.2534 32.5091 19.2534C32.9406 19.2534 33.2904 19.6031 33.2904 20.0346V33.9651C33.2904 34.3967 32.9406 34.7465 32.5091 34.7465V34.7465ZM28.6029 2.677C28.6029 2.24554 28.2531 1.89575 27.8216 1.89575H5.73828C5.30745 1.89575 4.95703 2.24617 4.95703 2.677V20.5677C4.95703 20.9992 4.60724 21.349 4.17578 21.349C3.74432 21.349 3.39453 20.9992 3.39453 20.5677V2.677C3.39453 1.38461 4.44589 0.333252 5.73828 0.333252H27.8216C28.4475 0.333252 29.0361 0.577002 29.4788 1.01961C29.4788 1.01961 29.4788 1.01961 29.4789 1.01971C29.5523 1.09315 32.2499 3.79075 34.9477 6.48846C37.6437 9.1845 40.3397 11.8805 40.4163 11.9572C40.4929 12.0339 40.4164 11.9572 40.4164 11.9573H40.4165C40.8591 12.4 41.1028 12.9885 41.1028 13.6144V37.5988C41.1028 38.0302 40.753 38.38 40.3215 38.38C39.89 38.38 39.5403 38.0302 39.5403 37.5988V13.6145C39.5403 13.183 39.1905 12.8333 38.759 12.8333H30.9465C29.6541 12.8333 28.6028 11.7819 28.6028 10.4895V2.677H28.6029ZM35.6341 31.5893C35.2027 31.5893 34.8529 31.2395 34.8529 30.808V23.1919C34.8529 22.7604 35.2027 22.4106 35.6341 22.4106C36.0656 22.4106 36.4154 22.7604 36.4154 23.1919V30.808C36.4154 31.2395 36.0656 31.5893 35.6341 31.5893ZM29.3841 30.892C28.9527 30.892 28.6029 30.5422 28.6029 30.1108V23.8891C28.6029 23.4576 28.9527 23.1078 29.3841 23.1078C29.8156 23.1078 30.1654 23.4576 30.1654 23.8891V30.1108C30.1654 30.5422 29.8156 30.892 29.3841 30.892Z" fill="#00ADBB"/>
</g>
<defs>
<clipPath id="clip0_10_731">
<rect width="42.6667" height="53.3333" fill="white" transform="translate(0.916016 0.333252)"/>
</clipPath>
</defs>
</svg>
