<svg width="61" height="54" viewBox="0 0 61 54" fill="none" xmlns="http://www.w3.org/2000/svg">
<g clip-path="url(#clip0_10_3830)">
<path d="M11.7886 54.0004C11.0963 54.0004 10.6348 53.5504 10.6348 52.8754V33.7504C10.6348 33.0754 11.0963 32.6254 11.7886 32.6254C12.4809 32.6254 12.9425 33.0754 12.9425 33.7504V52.8754C12.9425 53.5504 12.4809 54.0004 11.7886 54.0004Z" fill="white"/>
<path d="M11.7895 12.375C8.32797 12.375 5.44336 9.5625 5.44336 6.1875C5.44336 2.8125 8.32797 0 11.7895 0C15.2511 0 18.1357 2.8125 18.1357 6.1875C18.1357 9.5625 15.2511 12.375 11.7895 12.375ZM11.7895 2.25C9.59721 2.25 7.75105 4.05 7.75105 6.1875C7.75105 8.325 9.59721 10.125 11.7895 10.125C13.9818 10.125 15.828 8.325 15.828 6.1875C15.828 4.05 13.9818 2.25 11.7895 2.25Z" fill="white"/>
<path d="M16.4038 53.9993H7.17308C5.90385 53.9993 4.86539 52.9868 4.86539 51.7493V35.3243C2.21154 34.7618 0.25 32.5118 0.25 29.8118V19.1243C0.25 14.5118 4.98077 11.2493 11.7885 11.2493H31.4038C33.3654 11.2493 34.8654 12.7118 34.8654 14.6243C34.8654 16.5368 33.3654 17.9993 31.4038 17.9993H19.8654C19.1731 17.9993 18.7115 18.4493 18.7115 19.1243V51.7493C18.7115 52.9868 17.6731 53.9993 16.4038 53.9993ZM7.17308 34.3118V51.7493H16.4038V19.1243C16.4038 17.2118 17.9038 15.7493 19.8654 15.7493H31.4038C32.0962 15.7493 32.5577 15.2993 32.5577 14.6243C32.5577 13.9493 32.0962 13.4993 31.4038 13.4993H11.7885C7.28846 13.4993 2.55769 15.2993 2.55769 19.1243V29.8118C2.55769 31.2743 3.48077 32.5118 4.86539 32.9618V20.2493C4.86539 19.5743 5.32692 19.1243 6.01923 19.1243C6.71154 19.1243 7.17308 19.5743 7.17308 20.2493V34.3118Z" fill="white"/>
<path d="M59.096 38.2493H22.1729C21.4806 38.2493 21.0191 37.7993 21.0191 37.1243C21.0191 36.4493 21.4806 35.9993 22.1729 35.9993H57.9422V6.74927H21.0191C20.3268 6.74927 19.8652 6.29927 19.8652 5.62427C19.8652 4.94927 20.3268 4.49927 21.0191 4.49927H59.096C59.7883 4.49927 60.2498 4.94927 60.2498 5.62427V37.1243C60.2498 37.7993 59.7883 38.2493 59.096 38.2493Z" fill="#12284C"/>
<path d="M36.0191 54.0007C35.3268 54.0007 34.8652 53.5507 34.8652 52.8757V37.1257C34.8652 36.4507 35.3268 36.0007 36.0191 36.0007C36.7114 36.0007 37.1729 36.4507 37.1729 37.1257V52.8757C37.1729 53.5507 36.7114 54.0007 36.0191 54.0007Z" fill="#12284C"/>
<path d="M44.0967 54C43.7506 54 43.5198 53.8875 43.2891 53.6625L36.0198 46.575L28.7506 53.6625C28.2891 54.1125 27.5968 54.1125 27.1352 53.6625C26.6737 53.2125 26.6737 52.5375 27.1352 52.0875L35.2121 44.2125C35.6737 43.7625 36.366 43.7625 36.8275 44.2125L44.9044 52.0875C45.366 52.5375 45.366 53.2125 44.9044 53.6625C44.6737 53.8875 44.4429 54 44.0967 54Z" fill="#12284C"/>
<path d="M24.48 31.5C24.1339 31.5 23.9031 31.3875 23.6723 31.1625C23.2108 30.7125 23.2108 30.0375 23.6723 29.5875L30.5954 22.8375C31.0569 22.3875 31.7493 22.3875 32.2108 22.8375L36.0185 26.55L49.057 13.8375C49.5185 13.3875 50.2108 13.3875 50.6723 13.8375C51.1339 14.2875 51.1339 14.9625 50.6723 15.4125L36.8262 28.9125C36.3646 29.3625 35.6723 29.3625 35.2108 28.9125L31.4031 25.2L25.2877 31.1625C25.0569 31.3875 24.8262 31.5 24.48 31.5Z" fill="#12284C"/>
<path d="M49.866 22.5C49.1737 22.5 48.7121 22.05 48.7121 21.375V15.75H42.9429C42.2506 15.75 41.7891 15.3 41.7891 14.625C41.7891 13.95 42.2506 13.5 42.9429 13.5H49.866C50.5583 13.5 51.0198 13.95 51.0198 14.625V21.375C51.0198 22.05 50.5583 22.5 49.866 22.5Z" fill="#12284C"/>
</g>
<defs>
<clipPath id="clip0_10_3830">
<rect width="60" height="54" fill="white" transform="translate(0.25)"/>
</clipPath>
</defs>
</svg>
