<svg width="61" height="48" viewBox="0 0 61 48" fill="none" xmlns="http://www.w3.org/2000/svg">
<g clip-path="url(#clip0_10_11151)">
<path d="M54.8929 47.9997H5.60714C2.60714 47.9997 0.25 45.5997 0.25 42.5452V40.3634C0.25 39.7088 0.678571 39.2725 1.32143 39.2725H25.9643C26.6071 39.2725 27.0357 39.7088 27.0357 40.3634C27.0357 41.0179 27.4643 41.4543 28.1071 41.4543H32.3929C33.0357 41.4543 33.4643 41.0179 33.4643 40.3634C33.4643 39.7088 33.8929 39.2725 34.5357 39.2725H59.1786C59.8214 39.2725 60.25 39.7088 60.25 40.3634V42.5452C60.25 45.5997 57.8929 47.9997 54.8929 47.9997ZM2.39286 41.4543V42.5452C2.39286 44.3997 3.78571 45.8179 5.60714 45.8179H54.8929C56.7143 45.8179 58.1071 44.3997 58.1071 42.5452V41.4543H35.3929C34.9643 42.7634 33.7857 43.6361 32.3929 43.6361H28.1071C26.7143 43.6361 25.5357 42.7634 25.1071 41.4543H2.39286Z" fill="#12284C"/>
<path d="M5.60658 41.454C4.96373 41.454 4.53516 41.0177 4.53516 40.3631V10.9086C4.53516 8.50856 6.46373 6.54492 8.82087 6.54492H14.178C14.8209 6.54492 15.2494 6.98129 15.2494 7.63583C15.2494 8.29038 14.8209 8.72674 14.178 8.72674H8.82087C7.6423 8.72674 6.67801 9.70856 6.67801 10.9086V40.3631C6.67801 41.0177 6.24944 41.454 5.60658 41.454Z" fill="#12284C"/>
<path d="M54.8923 41.454C54.2494 41.454 53.8209 41.0177 53.8209 40.3631V10.9086C53.8209 9.70856 52.8566 8.72674 51.678 8.72674H50.6066C49.9637 8.72674 49.5352 8.29038 49.5352 7.63583C49.5352 6.98129 49.9637 6.54492 50.6066 6.54492H51.678C54.0352 6.54492 55.9637 8.50856 55.9637 10.9086V40.3631C55.9637 41.0177 55.5352 41.454 54.8923 41.454Z" fill="#12284C"/>
<path d="M18.4657 26.1822C14.93 26.1822 12.0371 23.2368 12.0371 19.6368C12.0371 16.0368 14.93 13.0913 18.4657 13.0913C22.0014 13.0913 24.8943 16.0368 24.8943 19.6368C24.8943 23.2368 22.0014 26.1822 18.4657 26.1822ZM18.4657 15.2731C16.1085 15.2731 14.18 17.2368 14.18 19.6368C14.18 22.0368 16.1085 24.0004 18.4657 24.0004C20.8228 24.0004 22.7514 22.0368 22.7514 19.6368C22.7514 17.2368 20.8228 15.2731 18.4657 15.2731Z" fill="white"/>
<path d="M27.0366 37.0913C26.3937 37.0913 25.9651 36.6549 25.9651 36.0004V33.8186C25.9651 29.0186 22.108 27.2731 18.4651 27.2731C14.8223 27.2731 10.9651 29.0186 10.9651 33.8186V36.0004C10.9651 36.6549 10.5366 37.0913 9.89369 37.0913C9.25084 37.0913 8.82227 36.6549 8.82227 36.0004V33.8186C8.82227 28.5822 12.6794 25.0913 18.4651 25.0913C24.2508 25.0913 28.108 28.5822 28.108 33.8186V36.0004C28.108 36.6549 27.6794 37.0913 27.0366 37.0913Z" fill="white"/>
<path d="M29.1783 28.3636C28.8569 28.3636 28.6426 28.2546 28.4283 28.0364C27.9997 27.6 27.9997 26.9455 28.4283 26.5091L32.714 22.1455C32.9283 21.9273 33.1426 21.8182 33.464 21.8182H43.1069C44.2854 21.8182 45.2497 20.8364 45.2497 19.6364V4.36364C45.2497 3.16364 44.2854 2.18182 43.1069 2.18182H21.6783C20.4997 2.18182 19.5354 3.16364 19.5354 4.36364V14.1818C19.5354 14.8364 19.1069 15.2727 18.464 15.2727C17.8211 15.2727 17.3926 14.8364 17.3926 14.1818V4.36364C17.3926 1.96364 19.3211 0 21.6783 0H43.1069C45.464 0 47.3926 1.96364 47.3926 4.36364V19.6364C47.3926 22.0364 45.464 24 43.1069 24H33.8926L29.9283 28.0364C29.714 28.2546 29.4997 28.3636 29.1783 28.3636Z" fill="white"/>
<path d="M25.4294 13.6365C24.5723 13.6365 23.8223 12.8729 23.8223 12.0001C23.8223 11.1274 24.5723 10.3638 25.4294 10.3638C26.2866 10.3638 27.0366 11.1274 27.0366 12.0001C27.0366 12.8729 26.2866 13.6365 25.4294 13.6365ZM25.4294 11.4547C25.108 11.4547 24.8937 11.6729 24.8937 12.0001C24.8937 12.3274 25.108 12.5456 25.4294 12.5456C25.7508 12.5456 25.9651 12.3274 25.9651 12.0001C25.9651 11.6729 25.7508 11.4547 25.4294 11.4547Z" fill="white"/>
<path d="M32.3943 13.6365C31.5371 13.6365 30.7871 12.8729 30.7871 12.0001C30.7871 11.1274 31.5371 10.3638 32.3943 10.3638C33.2514 10.3638 34.0014 11.1274 34.0014 12.0001C34.0014 12.8729 33.2514 13.6365 32.3943 13.6365ZM32.3943 11.4547C32.0728 11.4547 31.8585 11.6729 31.8585 12.0001C31.8585 12.3274 32.0728 12.5456 32.3943 12.5456C32.7157 12.5456 32.93 12.3274 32.93 12.0001C32.93 11.6729 32.7157 11.4547 32.3943 11.4547Z" fill="white"/>
<path d="M39.3571 13.6365C38.5 13.6365 37.75 12.8729 37.75 12.0001C37.75 11.1274 38.5 10.3638 39.3571 10.3638C40.2143 10.3638 40.9643 11.1274 40.9643 12.0001C40.9643 12.8729 40.2143 13.6365 39.3571 13.6365ZM39.3571 11.4547C39.0357 11.4547 38.8214 11.6729 38.8214 12.0001C38.8214 12.3274 39.0357 12.5456 39.3571 12.5456C39.6786 12.5456 39.8929 12.3274 39.8929 12.0001C39.8929 11.6729 39.6786 11.4547 39.3571 11.4547Z" fill="white"/>
</g>
<defs>
<clipPath id="clip0_10_11151">
<rect width="60" height="48" fill="white" transform="translate(0.25)"/>
</clipPath>
</defs>
</svg>
