<svg width="61" height="48" viewBox="0 0 61 48" fill="none" xmlns="http://www.w3.org/2000/svg">
<path d="M54.8929 48.0001H5.60714C2.60714 48.0001 0.25 45.3601 0.25 42.0001V39.6001C0.25 38.8801 0.678571 38.4001 1.32143 38.4001H25.9643C26.6071 38.4001 27.0357 38.8801 27.0357 39.6001C27.0357 40.3201 27.4643 40.8001 28.1071 40.8001H32.3929C33.0357 40.8001 33.4643 40.3201 33.4643 39.6001C33.4643 38.8801 33.8929 38.4001 34.5357 38.4001H59.1786C59.8214 38.4001 60.25 38.8801 60.25 39.6001V42.0001C60.25 45.3601 57.8929 48.0001 54.8929 48.0001ZM2.39286 40.8001V42.0001C2.39286 44.0401 3.78571 45.6001 5.60714 45.6001H54.8929C56.7143 45.6001 58.1071 44.0401 58.1071 42.0001V40.8001H35.3929C34.9643 42.2401 33.7857 43.2001 32.3929 43.2001H28.1071C26.7143 43.2001 25.5357 42.2401 25.1071 40.8001H2.39286Z" fill="#12284C"/>
<path d="M6.74786 40.7997C6.12219 40.7997 5.70508 40.3797 5.70508 39.7497V11.3997C5.70508 9.08971 7.58208 7.19971 9.8762 7.19971H40.1168C40.7425 7.19971 41.1596 7.61971 41.1596 8.24971C41.1596 8.87971 40.7425 9.29971 40.1168 9.29971H9.8762C8.72914 9.29971 7.79064 10.2447 7.79064 11.3997V39.7497C7.79064 40.3797 7.37353 40.7997 6.74786 40.7997Z" fill="#12284C"/>
<path d="M9.49883 36C9.17868 36 8.96524 35.8941 8.7518 35.6824C8.32492 35.2588 8.32492 34.6235 8.7518 34.2L21.5581 21.4941C21.985 21.0706 22.6253 21.0706 23.0522 21.4941L30.8427 29.2235L51.4395 8.78824C51.8664 8.36471 52.5067 8.36471 52.9336 8.78824L55.3882 11.2235V2.11765H46.2103L48.6648 4.55294C49.0917 4.97647 49.0917 5.61176 48.6648 6.03529L31.5897 22.9765C31.1629 23.4 30.5226 23.4 30.0957 22.9765L22.3052 15.2471L10.2459 27.2118C9.81899 27.6353 9.17868 27.6353 8.7518 27.2118C8.32492 26.7882 8.32492 26.1529 8.7518 25.7294L21.5581 13.0235C21.985 12.6 22.6253 12.6 23.0522 13.0235L30.8427 20.7529L46.4237 5.29412L42.902 1.8C42.5818 1.48235 42.4751 1.05882 42.6886 0.635294C42.7953 0.211765 43.2222 0 43.649 0H56.4554C57.0957 0 57.5226 0.423529 57.5226 1.05882V13.7647C57.5226 14.1882 57.3091 14.6118 56.8822 14.7176C56.4554 14.9294 56.0285 14.8235 55.7083 14.5059L52.1866 11.0118L31.5897 31.4471C31.1629 31.8706 30.5226 31.8706 30.0957 31.4471L22.3052 23.7176L10.2459 35.6824C10.0324 35.8941 9.81899 36 9.49883 36Z" fill="white"/>
</svg>
